<svg version="1.1" xmlns="http://www.w3.org/2000/svg" xmlns:xlink="http://www.w3.org/1999/xlink" width="95.46438" height="103.4625" viewBox="0,0,95.46438,103.4625"><defs><linearGradient x1="244.35076" y1="160.61795" x2="244.35076" y2="240.71795" gradientTransform="translate(-141.42742,-132.25046) scale(0.59925,0.59925)" gradientUnits="userSpaceOnUse" id="color-1"><stop offset="0" stop-color="#ff0000"/><stop offset="1" stop-color="#cc00ff"/></linearGradient></defs><g transform="translate(-192.86875,-135.5867)"><g data-paper-data="{&quot;isPaintingLayer&quot;:true}" fill-rule="nonzero" stroke="#000000" stroke-linecap="butt" stroke-linejoin="miter" stroke-miterlimit="10" stroke-dasharray="" stroke-dashoffset="0" style="mix-blend-mode: normal"><path d="M241.49308,144.99029c3.95453,7.20489 37.78311,68.83841 44.14458,80.42859c0.25007,0.45561 0.93944,1.11476 0.94589,1.40937c0.01067,0.48795 -0.87285,0.46548 -1.52145,0.46548c-11.57735,0 -82.09242,0 -89.31615,0c-0.61349,0 -1.18872,-0.16448 -1.37797,-0.47879c-0.17327,-0.28778 -0.0003,-0.70115 0.28937,-1.22889c6.12668,-11.16242 40.33573,-73.48913 44.26883,-80.65498c0.34256,-0.62413 0.77001,-1.2274 1.2038,-1.25071c0.48257,-0.02593 0.97298,0.59917 1.3631,1.30994z" fill="#ffd800" stroke-width="3.5"/><text transform="translate(236.00701,220.69295) scale(1.66875,1.66875)" font-size="40" xml:space="preserve" fill="url(#color-1)" fill-rule="nonzero" stroke="#000000" stroke-width="2" stroke-linecap="butt" stroke-linejoin="miter" stroke-miterlimit="10" stroke-dasharray="" stroke-dashoffset="0" font-family="Pixel" font-weight="normal" text-anchor="start" style="mix-blend-mode: normal"><tspan x="0" dy="0">!</tspan></text></g></g></svg>